<svg width="21" height="21" viewBox="0 0 21 21" xmlns="http://www.w3.org/2000/svg">
<path fill-rule="evenodd" clip-rule="evenodd" d="M11.6558 9.66992V1.66992C11.6558 1.11764 11.208 0.669922 10.6558 0.669922C10.1035 0.669922 9.65576 1.11764 9.65576 1.66992V9.66992H1.65576C1.10348 9.66992 0.655762 10.1176 0.655762 10.6699C0.655762 11.2222 1.10348 11.6699 1.65576 11.6699H9.65576V19.6699C9.65576 20.2222 10.1035 20.6699 10.6558 20.6699C11.208 20.6699 11.6558 20.2222 11.6558 19.6699V11.6699H19.6558C20.208 11.6699 20.6558 11.2222 20.6558 10.6699C20.6558 10.1176 20.208 9.66992 19.6558 9.66992H11.6558Z"/>
</svg>
