<?xml version="1.0" encoding="UTF-8"?>
<svg width="16px" height="16px" viewBox="0 0 16 16" version="1.1" xmlns="http://www.w3.org/2000/svg" xmlns:xlink="http://www.w3.org/1999/xlink">
    <!-- Generator: Sketch 61.2 (89653) - https://sketch.com -->
    <desc>Created with Sketch.</desc>
    <g id="UI" stroke="none" stroke-width="1" fill-rule="evenodd">
        <g id="191219-WebUI-Skeleton-SSS-error">
            <g id="hide-overlay-error">
                <g id="Icons-/-Cross">
                    <path d="m8,6.718367l-5.70295,-5.702922c-0.353893,-0.353921 -0.927712,-0.353921 -1.281605,0c-0.353949,0.353893 -0.353949,0.927712 0,1.281605l5.70295,5.70295l-5.70295,5.70295c-0.353949,0.353893 -0.353949,0.927711 0,1.281605c0.353893,0.353922 0.927712,0.353922 1.281605,0l5.70295,-5.702921l5.70295,5.702921c0.353893,0.353922 0.927711,0.353922 1.281605,0c0.353951,-0.353893 0.353951,-0.927711 0,-1.281605l-5.70295,-5.70295l5.70295,-5.70295c0.353951,-0.353894 0.353951,-0.927712 0,-1.281605c-0.353893,-0.353921 -0.927711,-0.353921 -1.281605,0l-5.70295,5.702922z"/>
                </g>
            </g>
        </g>
    </g>
</svg>