<?xml version="1.0" encoding="UTF-8"?>
<svg width="20px" height="20px" viewBox="0 0 20 20" version="1.1" xmlns="http://www.w3.org/2000/svg" xmlns:xlink="http://www.w3.org/1999/xlink">
    <!-- Generator: Sketch 61.2 (89653) - https://sketch.com -->
    <desc>Created with Sketch.</desc>
    <g id="UI" stroke="none" stroke-width="1" fill="none" fill-rule="evenodd" opacity="0.603841146">
        <g id="191219-WebUI-Skeleton-SSS" transform="translate(-645.000000, -210.000000)">
            <g id="eth-balance" transform="translate(101.000000, 95.000000)">
                <g id="hide-top-up-view" transform="translate(62.000000, 5.000000)">
                    <g id="copy" transform="translate(482.000000, 110.000000)">
                        <mask id="mask-copy" fill="white">
                            <path d="M9.16666667,8.33333333 C8.70642938,8.33333333 8.33333333,8.70642938 8.33333333,9.16666667 L8.33333333,16.6666667 C8.33333333,17.126904 8.70642938,17.5 9.16666667,17.5 L16.6666667,17.5 C17.126904,17.5 17.5,17.126904 17.5,16.6666667 L17.5,9.16666667 C17.5,8.70642938 17.126904,8.33333333 16.6666667,8.33333333 L9.16666667,8.33333333 Z M16.6666667,6.66666667 C18.0473785,6.66666667 19.1666667,7.78595479 19.1666667,9.16666667 L19.1666667,16.6666667 C19.1666667,18.0473785 18.0473785,19.1666667 16.6666667,19.1666667 L9.16666667,19.1666667 C7.78595479,19.1666667 6.66666667,18.0473785 6.66666667,16.6666667 L6.66666667,9.16666667 C6.66666667,7.78595479 7.78595479,6.66666667 9.16666667,6.66666667 L16.6666667,6.66666667 Z M10.8333333,0.833333333 C12.2140452,0.833333333 13.3333333,1.95262146 13.3333333,3.33333333 L13.3333333,3.33333333 L13.3333333,4.16666667 C13.3333333,4.62690396 12.9602373,5 12.5,5 C12.0397627,5 11.6666667,4.62690396 11.6666667,4.16666667 L11.6666667,4.16666667 L11.6666667,3.33333333 C11.6666667,2.87309604 11.2935706,2.5 10.8333333,2.5 L10.8333333,2.5 L3.33333333,2.5 C2.87309604,2.5 2.5,2.87309604 2.5,3.33333333 L2.5,3.33333333 L2.5,10.8333333 C2.5,11.2935706 2.87309604,11.6666667 3.33333333,11.6666667 L3.33333333,11.6666667 L4.16666667,11.6666667 C4.62690396,11.6666667 5,12.0397627 5,12.5 C5,12.9602373 4.62690396,13.3333333 4.16666667,13.3333333 L4.16666667,13.3333333 L3.33333333,13.3333333 C1.95262146,13.3333333 0.833333333,12.2140452 0.833333333,10.8333333 L0.833333333,10.8333333 L0.833333333,3.33333333 C0.833333333,1.95262146 1.95262146,0.833333333 3.33333333,0.833333333 L3.33333333,0.833333333 Z"></path>
                        </mask>
                        <g id="COLOR/-white" mask="url(#mask-copy)" fill="#FFFFFF" fill-rule="evenodd">
                            <rect id="Rectangle" x="0" y="0" width="20" height="20"></rect>
                        </g>
                    </g>
                </g>
            </g>
        </g>
    </g>
</svg>