<svg width="24" height="24" xmlns="http://www.w3.org/2000/svg">
<!-- Generator: sketchtool 61.2 (101010) - https://sketch.com -->
<desc>Created with sketchtool.</desc>
    <g fill-rule="evenodd" id="Skeleton">
        <g id="hide-overlay-error">
            <path fill-rule="nonzero" id="!" d="m13.430176,16.134769l0.339844,-14.54248l-3.625,0l0.325684,14.54248l2.959473,0zm-1.430176,6.272942c0.623047,0 1.104492,-0.174641 1.444336,-0.523922c0.339844,-0.349289 0.509766,-0.783527 0.509766,-1.302738c0,-0.538082 -0.174637,-0.984131 -0.523926,-1.338131c-0.349289,-0.354 -0.826004,-0.53101 -1.430176,-0.53101c-0.604172,0 -1.080887,0.17701 -1.430176,0.53101c-0.349289,0.354 -0.523926,0.800049 -0.523926,1.338131c0,0.519211 0.169922,0.953449 0.509766,1.302738c0.339844,0.349281 0.821289,0.523922 1.444336,0.523922z"/>
        </g>
    </g>
</svg>