<?xml version="1.0" encoding="UTF-8"?>
<svg width="70px" height="58px" viewBox="0 0 70 58" version="1.1" xmlns="http://www.w3.org/2000/svg" xmlns:xlink="http://www.w3.org/1999/xlink">
    <!-- Generator: sketchtool 61.2 (101010) - https://sketch.com -->
    <desc>Created with sketchtool.</desc>
    <g id="Skeleton" stroke="none" stroke-width="1" fill="none" fill-rule="evenodd">
        <g id="error" transform="translate(-593.000000, -322.000000)">
            <g id="hide-overlay-error">
                <g id="graphic-error" transform="translate(593.500000, 322.000000)">
                    <polygon id="Triangle" fill="#000000" points="34.5 0 69 58 0 58"></polygon>
                    <path d="M35.9301758,39.1347656 L36.2700195,24.5922852 L32.6450195,24.5922852 L32.9707031,39.1347656 L35.9301758,39.1347656 Z M34.5,45.4077148 C35.1230469,45.4077148 35.6044922,45.2330729 35.9443359,44.8837891 C36.2841797,44.5345052 36.4541016,44.1002604 36.4541016,43.5810547 C36.4541016,43.0429688 36.2794596,42.5969238 35.9301758,42.2429199 C35.5808919,41.888916 35.1041667,41.7119141 34.5,41.7119141 C33.8958333,41.7119141 33.4191081,41.888916 33.0698242,42.2429199 C32.7205404,42.5969238 32.5458984,43.0429688 32.5458984,43.5810547 C32.5458984,44.1002604 32.7158203,44.5345052 33.0556641,44.8837891 C33.3955078,45.2330729 33.8769531,45.4077148 34.5,45.4077148 Z" id="!" fill="#D8D8D8" fill-rule="nonzero"></path>
                </g>
            </g>
        </g>
    </g>
</svg>