<?xml version="1.0" encoding="UTF-8"?>
<svg width="29px" height="28px" viewBox="0 0 29 28" version="1.1" xmlns="http://www.w3.org/2000/svg" xmlns:xlink="http://www.w3.org/1999/xlink">
    <!-- Generator: sketchtool 61.2 (101010) - https://sketch.com -->
    <desc>Created with sketchtool.</desc>
    <defs>
    </defs>
    <g id="Asset-Artboard-Page" stroke="none" stroke-width="1" fill-rule="evenodd">
        <g id="Icons-/-Plus-Copy-eye" transform="translate(0.918129, 0.000000)">
            <mask id="mask-eye-2">
                <path d="M14,3.5 C17.9431029,3.5 21.395141,5.40457276 24.3302934,8.53540202 C25.338686,9.61102075 26.2144161,10.7595193 26.9566084,11.9087203 C27.4050382,12.6030632 27.7128356,13.1502586 27.8768317,13.4782508 C28.0410561,13.8066995 28.0410561,14.1933005 27.8768317,14.5217492 C27.7128356,14.8497414 27.4050382,15.3969368 26.9566084,16.0912797 C26.2144161,17.2404807 25.338686,18.3889792 24.3302934,19.464598 C21.395141,22.5954272 17.9431029,24.5 14,24.5 C10.0568971,24.5 6.60485902,22.5954272 3.6697066,19.464598 C2.66131403,18.3889792 1.78558391,17.2404807 1.04339156,16.0912797 C0.594961804,15.3969368 0.287164391,14.8497414 0.123168277,14.5217492 C-0.0410560924,14.1933005 -0.0410560924,13.8066995 0.123168277,13.4782508 C0.287164391,13.1502586 0.594961804,12.6030632 1.04339156,11.9087203 C1.78558391,10.7595193 2.66131403,9.61102075 3.6697066,8.53540202 C6.60485902,5.40457276 10.0568971,3.5 14,3.5 Z M14.0000006,5.83333333 C10.7972699,5.83333333 7.90555796,7.42876057 5.37196028,10.1312647 C4.46629031,11.0973126 3.67405165,12.1363141 3.00348356,13.174613 C2.81315689,13.4693123 2.64435349,13.746098 2.49749764,14 C2.64435349,14.253902 2.81315689,14.5306877 3.00348356,14.825387 C3.67405165,15.8636859 4.46629031,16.9026874 5.37196028,17.8687353 C7.90555796,20.5712394 10.7972699,22.1666667 14.0000006,22.1666667 C17.2027312,22.1666667 20.0944432,20.5712394 22.6280408,17.8687353 C23.5337108,16.9026874 24.3259495,15.8636859 24.9965176,14.825387 C25.1868442,14.5306877 25.3556476,14.253902 25.5025035,14 C25.3556476,13.746098 25.1868442,13.4693123 24.9965176,13.174613 C24.3259495,12.1363141 23.5337108,11.0973126 22.6280408,10.1312647 C20.0944432,7.42876057 17.2027312,5.83333333 14.0000006,5.83333333 Z M14,9.33333333 C16.5773288,9.33333333 18.6666667,11.4226712 18.6666667,14 C18.6666667,16.5773288 16.5773288,18.6666667 14,18.6666667 C11.4226712,18.6666667 9.33333333,16.5773288 9.33333333,14 C9.33333333,11.4226712 11.4226712,9.33333333 14,9.33333333 Z M14,11.6666667 C12.7113356,11.6666667 11.6666667,12.7113356 11.6666667,14 C11.6666667,15.2886644 12.7113356,16.3333333 14,16.3333333 C15.2886644,16.3333333 16.3333333,15.2886644 16.3333333,14 C16.3333333,12.7113356 15.2886644,11.6666667 14,11.6666667 Z"></path>
            </mask>
            <g id="COLOR/-black-COLOR/-white" mask="url(#mask-eye-2)">
                <rect id="Rectangle" x="0" y="0" width="28" height="28"></rect>
            </g>
        </g>
    </g>
</svg>