<svg width="14" height="13" viewBox="0 0 14 13" xmlns="http://www.w3.org/2000/svg">
<path d="M3.5 8.925C3.5 6.9125 7 3.5 7 3.5C7 3.5 10.5 6.9125 10.5 8.925C10.5 11.025 8.6625 12.25 7 12.25C5.3375 12.25 3.5 11.025 3.5 8.925ZM0 3.2375C0 2.0125 1.925 0 1.925 0C1.925 0 3.85 2.0125 3.85 3.2375C3.9375 4.55 2.8875 5.25 1.925 5.25C0.9625 5.25 0 4.55 0 3.2375ZM14 3.2375C14 4.55 12.95 5.25 12.075 5.25C11.2 5.25 10.15 4.55 10.15 3.2375C10.15 2.0125 12.075 0 12.075 0C12.075 0 14 2.0125 14 3.2375Z"/>
</svg>
