<svg width="16" height="16" viewBox="0 0 16 16" fill="none" xmlns="http://www.w3.org/2000/svg">
<path d="M7.92551 6.86328L14.1476 13.0853C14.355 13.3964 14.6453 14.1431 14.1476 14.6408C13.5254 15.263 12.9031 14.9519 12.592 14.6408C12.3432 14.392 8.34031 10.3891 6.37 8.41879" stroke="currentColor" stroke-width="1.33" stroke-linecap="round" stroke-linejoin="round"/>
<path d="M4.81458 8.10772C5.12568 8.41882 5.43678 9.04102 6.05899 8.41882C6.55675 7.92106 7.5108 6.96701 7.9256 6.5522C8.2367 6.2411 8.11226 6.11666 7.6145 5.6189" stroke="currentColor" stroke-width="1.33" stroke-linecap="round" stroke-linejoin="round"/>
<path d="M4.8145 8.10766L1.39238 11.5298C0.64573 10.5343 2.43875 7.55928 3.42859 6.19623C2.93083 5.69846 2.80639 5.57402 3.11749 5.26292C3.53229 4.84812 4.48634 3.89407 4.98411 3.39631C5.60631 2.7741 5.91741 3.39631 6.22852 3.70741C7.62379 2.78904 10.601 1.13896 11.3477 1.88561L7.61443 5.61884" stroke="currentColor" stroke-width="1.33" stroke-linecap="round" stroke-linejoin="round"/>
<path d="M5.11203 3.33955C4.87847 3.11592 4.55849 2.98294 4.20978 2.99458C3.5229 3.01753 2.98467 3.59296 3.00761 4.27985C3.01815 4.59527 3.14519 4.87934 3.34602 5.09213" stroke="currentColor" stroke-width="1.33" stroke-linecap="round"/>
</svg>
