<?xml version="1.0" encoding="UTF-8"?>
<svg width="18px" height="4px" viewBox="0 0 18 4" version="1.1" xmlns="http://www.w3.org/2000/svg" xmlns:xlink="http://www.w3.org/1999/xlink">
    <!-- Generator: Sketch 61.2 (89653) - https://sketch.com -->
    <desc>Created with Sketch.</desc>
    <g id="UI" stroke="none" stroke-width="1" fill-rule="evenodd">
        <g id="191219-WebUI-Skeleton-SSS" transform="translate(-579.000000, -312.000000)">
            <g id="networks-carousel" transform="translate(100.000000, 285.000000)">
                <g id="wiz-network" transform="translate(360.000000, 0.000000)">
                    <g id="Icons-/-Options" transform="translate(114.000000, 15.000000)">
                        <path d="M7,12 C8.1045695,12 9,12.8954305 9,14 C9,15.1045695 8.1045695,16 7,16 C5.8954305,16 5,15.1045695 5,14 C5,12.8954305 5.8954305,12 7,12 Z M14,12 C15.1045695,12 16,12.8954305 16,14 C16,15.1045695 15.1045695,16 14,16 C12.8954305,16 12,15.1045695 12,14 C12,12.8954305 12.8954305,12 14,12 Z M21,12 C22.1045695,12 23,12.8954305 23,14 C23,15.1045695 22.1045695,16 21,16 C19.8954305,16 19,15.1045695 19,14 C19,12.8954305 19.8954305,12 21,12 Z"></path>
                    </g>
                </g>
            </g>
        </g>
    </g>
</svg>