<?xml version="1.0" encoding="UTF-8"?>
<svg width="18px" height="20px" viewBox="0 0 18 20" version="1.1" xmlns="http://www.w3.org/2000/svg" xmlns:xlink="http://www.w3.org/1999/xlink">
    <!-- Generator: Sketch 64 (93537) - https://sketch.com -->
    <g id="Page-1" stroke="none" stroke-width="1" fill-rule="evenodd">
        <g id="icon-notification" fill-rule="nonzero">
            <g id="UI">
                <g id="191219-WebUI-Skeleton-SSS">
                    <g id="search-notifications">
                        <g id="button-icon-notification">
                            <path d="M9.5,20 C11.2253177,20 12.6685771,18.7089233 13,17 L6,17 C6.3315973,18.7089233 7.77485673,20 9.5,20 Z" id="Path"></path>
                            <path d="M15.2995865,9.4443868 C15.3050173,8.02959395 15.2995865,9.16676838 15.2995865,6.61105346 C15.2995865,4.05533854 13.7203776,0.03199258 9.60212389,0.03199258 C9.40405155,0.01227821 9.20334265,0 9,0 C5.52087853,0 2.70040792,2.95974733 2.70040792,6.61105346 L2.70040792,9.2441304 C2.70040792,11.1131897 1.92014802,12.8774516 0.551273899,14.0919596 C0.0949825389,14.500946 -0.107538973,15.1525574 0.0562579086,15.7882589 C0.247079673,16.5277201 0.943628482,17 1.67445266,17 L16.3210926,17 C17.08784,17 17.8105898,16.4786072 17.9661474,15.6900329 C18.0867705,15.0799255 17.8797997,14.4706828 17.4289463,14.07311 C16.1203837,12.9218953 15.3635233,11.2302653 15.3104624,9.4435221 C15.3068371,9.4435221 15.2995734,9.44781067 15.2995865,9.4443868 Z" id="Path"></path>
                        </g>
                    </g>
                </g>
            </g>
        </g>
    </g>
</svg>