<?xml version="1.0" encoding="UTF-8"?>
<svg width="20px" height="22px" viewBox="0 0 20 22" version="1.1" xmlns="http://www.w3.org/2000/svg" xmlns:xlink="http://www.w3.org/1999/xlink">
    <!-- Generator: Sketch 61.2 (89653) - https://sketch.com -->
    <desc>Created with Sketch.</desc>
    <g id="UI" stroke="none" stroke-width="1" fill="none" fill-rule="evenodd" opacity="0.232445126">
        <g id="191219-WebUI-Skeleton-SSS" transform="translate(-1042.000000, -129.000000)" fill="#FFFFFF" fill-rule="nonzero">
            <g id="search-notifications" transform="translate(800.000000, 124.000000)">
                <g id="button-icon-notification" transform="translate(242.000000, 5.000000)">
                    <path d="M9.5,22 C11.2253177,22 12.6685771,20.7089233 13,19 L6,19 C6.3315973,20.7089233 7.77485673,22 9.5,22 Z" id="Path"></path>
                    <path d="M15.3104624,11.4435221 C15.3068371,11.4435221 15.3032118,11.4443868 15.2995865,11.4443868 C11.8267297,11.4443868 9,8.47875977 9,4.83333333 C9,3.83118692 9.21965644,2.88386024 9.60212389,2.03199258 C9.40405155,2.01227821 9.20334265,2 9,2 C5.52087853,2 2.70040792,4.95974733 2.70040792,8.61105346 L2.70040792,11.2441304 C2.70040792,13.1131897 1.92014802,14.8774516 0.551273899,16.0919596 C0.0949825389,16.500946 -0.107538973,17.1525574 0.0562579086,17.7882589 C0.247079673,18.5277201 0.943628482,19 1.67445266,19 L16.3210926,19 C17.08784,19 17.8105898,18.4786072 17.9661474,17.6900329 C18.0867705,17.0799255 17.8797997,16.4706828 17.4289463,16.07311 C16.1203837,14.9218953 15.3635233,13.2302653 15.3104624,11.4435221 L15.3104624,11.4435221 Z" id="Path"></path>
                    <path d="M20,4.50008241 C20,6.98536979 17.9853698,9 15.4999176,9 C13.0146302,9 11,6.98536979 11,4.50008241 C11,2.01479499 13.0146302,0 15.4999176,0 C17.9853698,0 20,2.01479499 20,4.50008241 Z" id="Path"></path>
                </g>
            </g>
        </g>
    </g>
</svg>