<svg width="18" height="15" viewBox="0 0 18 15" xmlns="http://www.w3.org/2000/svg">
<path d="M17.2847 7.47351H0.277832V8.3645H17.2847V7.47351Z"/>
<path d="M7.64756 0.807739H1.67627V6.02166H7.64756V0.807739ZM6.64604 5.14717H2.69668V1.69873H6.64604V5.14717Z"/>
<path d="M5.20962 2.88672H4.00024V3.9427H5.20962V2.88672Z"/>
<path d="M6.64607 13.8424H2.69668V9.94849H1.67627V14.7169H7.66649V9.94849H6.64607V13.8424Z"/>
<path d="M5.20962 11.5822H4.00024V12.6381H5.20962V11.5822Z"/>
<path d="M15.9999 0.807739H10.0286V6.02166H15.9999V0.807739ZM14.9983 5.14717H11.049V1.69873H14.9983V5.14717Z"/>
<path d="M13.5431 2.88672H12.3337V3.9427H13.5431V2.88672Z"/>
<path d="M14.8093 13.694H12.4094V14.75H14.8093V13.694Z"/>
<path d="M10.0092 13.694H8.7998V14.75H10.0092V13.694Z"/>
<path d="M16.0187 12.6381H14.8093V13.694H16.0187V12.6381Z"/>
<path d="M14.8283 10.9386H13.6189V11.5986H14.8283V10.9386Z"/>
<path d="M11.2 12.6379H10.0095V13.6774H12.3716L12.3905 10.9879H11.2V12.6379Z"/>
<path d="M11.2001 9.94849H8.81909V10.988H11.2001V9.94849Z"/>
</svg>
