<svg width="13" height="13" viewBox="0 0 13 13" xmlns="http://www.w3.org/2000/svg">
<path d="M7.1501 10.7252C7.1501 10.3677 6.8576 10.0752 6.5001 10.0752C6.1426 10.0752 5.8501 10.3677 5.8501 10.7252V12.3502C5.8501 12.7077 6.1426 13.0002 6.5001 13.0002H7.4751C7.8326 13.0002 8.1251 12.7077 8.1251 12.3502C8.1251 11.9927 7.8326 11.7002 7.4751 11.7002H7.1501V10.7252Z"/>
<path d="M12.35 7.1501C12.7075 7.1501 13 6.8576 13 6.5001C13 6.1426 12.7075 5.8501 12.35 5.8501H10.725C10.3675 5.8501 10.075 6.1426 10.075 6.5001C10.075 6.8576 10.3675 7.1501 10.725 7.1501H12.35Z"/>
<path d="M2.275 7.1501C2.6325 7.1501 2.925 6.8576 2.925 6.5001C2.925 6.1426 2.6325 5.8501 2.275 5.8501H0.65C0.2925 5.8501 0 6.1426 0 6.5001C0 6.8576 0.2925 7.1501 0.65 7.1501H2.275Z"/>
<path d="M12.3501 10.4001C11.9926 10.4001 11.7001 10.6926 11.7001 11.0501V11.7001H10.4001V9.7501C10.4001 9.3926 10.1076 9.1001 9.7501 9.1001C9.3926 9.1001 9.1001 9.3926 9.1001 9.7501V12.3501C9.1001 12.7076 9.3926 13.0001 9.7501 13.0001H12.3501C12.7076 13.0001 13.0001 12.7076 13.0001 12.3501V11.0501C13.0001 10.6926 12.7076 10.4001 12.3501 10.4001Z"/>
<path d="M0 0.65V3.25C0 3.6075 0.2925 3.9 0.65 3.9H3.25C3.6075 3.9 3.9 3.6075 3.9 3.25V0.65C3.9 0.2925 3.6075 0 3.25 0H0.65C0.2925 0 0 0.2925 0 0.65ZM1.3 1.3H2.6V2.6H1.3V1.3Z"/>
<path d="M9.7501 3.9H12.3501C12.7076 3.9 13.0001 3.6075 13.0001 3.25V0.65C13.0001 0.2925 12.7076 0 12.3501 0H9.7501C9.3926 0 9.1001 0.2925 9.1001 0.65V3.25C9.1001 3.6075 9.3926 3.9 9.7501 3.9ZM10.4001 1.3H11.7001V2.6H10.4001V1.3Z"/>
<path d="M3.25 9.1001H0.65C0.2925 9.1001 0 9.3926 0 9.7501V12.3501C0 12.7076 0.2925 13.0001 0.65 13.0001H3.25C3.6075 13.0001 3.9 12.7076 3.9 12.3501V9.7501C3.9 9.3926 3.6075 9.1001 3.25 9.1001ZM2.6 11.7001H1.3V10.4001H2.6V11.7001Z"/>
<path d="M6.5001 3.9C6.8576 3.9 7.1501 3.6075 7.1501 3.25V0.65C7.1501 0.2925 6.8576 0 6.5001 0C6.1426 0 5.8501 0.2925 5.8501 0.65V3.25C5.8501 3.6075 6.1426 3.9 6.5001 3.9Z"/>
<rect x="5.41675" y="5.4165" width="2.16667" height="2.16667" rx="1.08333" />
</svg>
