<?xml version="1.0" encoding="UTF-8"?>
<svg width="18px" height="18px" viewBox="0 0 18 18" version="1.1" xmlns="http://www.w3.org/2000/svg" xmlns:xlink="http://www.w3.org/1999/xlink">
    <!-- Generator: Sketch 61.2 (89653) - https://sketch.com -->
    <desc>Created with Sketch.</desc>
    <g id="UI" stroke="none" stroke-width="1" fill="none" fill-rule="evenodd" opacity="0.58500744">
        <g id="191219-WebUI-Skeleton-SSS" transform="translate(-682.000000, -211.000000)" fill="#FFFFFF" fill-rule="nonzero">
            <g id="eth-balance" transform="translate(101.000000, 95.000000)">
                <g id="hide-top-up-view" transform="translate(62.000000, 5.000000)">
                    <g id="icon-button-qr" transform="translate(519.000000, 111.000000)">
                        <path d="M8.25,6 L7.5,6 L7.5,4.5 L8.25,4.5 L8.25,5.25 L9.75,5.25 L9.75,6 L9,6 L9,6.75 L8.25,6.75 L8.25,6 Z M9.75,15 L9.75,14.25 L9,14.25 L9,15 L9.75,15 Z M9,3.75 L9,3 L7.5,3 L7.5,3.75 L8.25,3.75 L8.25,4.5 L9,4.5 L9,3.75 Z M15,3 L15,7.5 L14.25,7.5 L14.25,6.75 L11.25,6.75 L11.25,3 L15,3 Z M14.25,6 L14.25,3.75 L12,3.75 L12,6 L14.25,6 Z M3.75,7.5 L3,7.5 L3,8.25 L4.5,8.25 L4.5,7.5 L3.75,7.5 Z M3.75,9.75 L4.5,9.75 L4.5,10.5 L5.25,10.5 L5.25,8.25 L4.5,8.25 L4.5,9 L3,9 L3,10.5 L3.75,10.5 L3.75,9.75 Z M7.5,10.5 L7.5,12 L8.25,12 L8.25,10.5 L7.5,10.5 Z M10.5,3 L9.75,3 L9.75,5.25 L10.5,5.25 L10.5,3 Z M10.5,6.75 L10.5,6 L9.75,6 L9.75,6.75 L10.5,6.75 Z M12.75,5.25 L13.5,5.25 L13.5,4.5 L12.75,4.5 L12.75,5.25 Z M5.25,4.5 L4.5,4.5 L4.5,5.25 L5.25,5.25 L5.25,4.5 Z M6.75,3 L6.75,6.75 L3,6.75 L3,3 L6.75,3 Z M6,3.75 L3.75,3.75 L3.75,6 L6,6 L6,3.75 Z M12.75,7.5 L12.75,8.25 L12,8.25 L12,7.5 L10.5,7.5 L10.5,8.25 L9.75,8.25 L9.75,7.5 L7.5,7.5 L7.5,6.75 L6.75,6.75 L6.75,7.5 L6,7.5 L6,8.25 L6.75,8.25 L6.75,9.75 L7.5,9.75 L7.5,9 L8.25,9 L8.25,10.5 L9,10.5 L9,9 L11.25,9 L11.25,9.75 L9.75,9.75 L9.75,10.5 L11.25,10.5 L11.25,11.25 L12,11.25 L12,9 L12.75,9 L12.75,9.75 L13.5,9.75 L13.5,11.25 L14.25,11.25 L14.25,10.5 L15,10.5 L15,9.75 L14.25,9.75 L14.25,9 L13.5,9 L13.5,8.25 L14.25,8.25 L14.25,7.5 L12.75,7.5 Z M4.5,13.5 L5.25,13.5 L5.25,12.75 L4.5,12.75 L4.5,13.5 Z M3,11.25 L6.75,11.25 L6.75,15 L3,15 L3,11.25 Z M3.75,14.25 L6,14.25 L6,12 L3.75,12 L3.75,14.25 Z M12.75,12 L12.75,11.25 L12,11.25 L12,12 L12.75,12 Z M12.75,12.75 L12,12.75 L12,13.5 L11.25,13.5 L11.25,12.75 L10.5,12.75 L10.5,12 L11.25,12 L11.25,11.25 L9.75,11.25 L9.75,10.5 L9,10.5 L9,12 L8.25,12 L8.25,12.75 L7.5,12.75 L7.5,15 L8.25,15 L8.25,14.25 L9,14.25 L9,13.5 L10.5,13.5 L10.5,15 L11.25,15 L11.25,14.25 L12,14.25 L12,15 L13.5,15 L13.5,14.25 L14.25,14.25 L14.25,13.5 L12.75,13.5 L12.75,12.75 Z M6,10.5 L6.75,10.5 L6.75,9.75 L6,9.75 L6,10.5 Z M13.5,12 L13.5,12.75 L14.25,12.75 L14.25,13.5 L15,13.5 L15,11.25 L14.25,11.25 L14.25,12 L13.5,12 Z M15,15 L15,14.25 L14.25,14.25 L14.25,15 L15,15 Z M15,9 L15,8.25 L14.25,8.25 L14.25,9 L15,9 Z M13.5,1.5 L16.5,1.5 L16.5,4.5 L18,4.5 L18,0 L13.5,0 L13.5,1.5 Z M1.5,4.5 L1.5,1.5 L4.5,1.5 L4.5,0 L0,0 L0,4.5 L1.5,4.5 Z M4.5,16.5 L1.5,16.5 L1.5,13.5 L0,13.5 L0,18 L4.5,18 L4.5,16.5 Z M16.5,13.5 L16.5,16.5 L13.5,16.5 L13.5,18 L18,18 L18,13.5 L16.5,13.5 Z" id="Shape"></path>
                    </g>
                </g>
            </g>
        </g>
    </g>
</svg>