<svg width="24" height="23" viewBox="0 0 24 23" xmlns="http://www.w3.org/2000/svg">
<path d="M23.4611 11.1001H0.786377V12.4606H23.4611V11.1001Z"/>
<path d="M10.6122 0.921875H2.65088V8.88322H10.6122V0.921875ZM9.27693 7.54793H4.01136V2.28236H9.27693V7.54793Z"/>
<path d="M7.36194 4.09644H5.74951V5.70886H7.36194V4.09644Z"/>
<path d="M9.27693 20.8252H4.01136V14.8794H2.65088V22.1605H10.6374V14.8794H9.27693V20.8252Z"/>
<path d="M7.36194 17.3738H5.74951V18.9862H7.36194V17.3738Z"/>
<path d="M21.748 0.921875H13.7866V8.88322H21.748V0.921875ZM20.4127 7.54793H15.1471V2.28236H20.4127V7.54793Z"/>
<path d="M18.4725 4.09644H16.8601V5.70886H18.4725V4.09644Z"/>
<path d="M20.1606 20.5984H16.9609V22.2108H20.1606V20.5984Z"/>
<path d="M13.7611 20.5984H12.1487V22.2108H13.7611V20.5984Z"/>
<path d="M21.7731 18.9861H20.1606V20.5985H21.7731V18.9861Z"/>
<path d="M20.1859 16.3911H18.5735V17.3989H20.1859V16.3911Z"/>
<path d="M15.3485 18.986H13.7612V20.5732H16.9105L16.9357 16.4666H15.3485V18.986Z"/>
<path d="M15.3485 14.8794H12.1741V16.4666H15.3485V14.8794Z"/>
</svg>
