<svg width="14" height="13" viewBox="0 0 14 13" xmlns="http://www.w3.org/2000/svg">
<path fill-rule="evenodd" clip-rule="evenodd" d="M5.84616 10.1429C3.16363 10.1429 0.989014 7.96826 0.989014 5.28573C0.989014 2.60321 3.16363 0.428589 5.84616 0.428589C8.52868 0.428589 10.7033 2.60321 10.7033 5.28573C10.7033 6.40816 10.3226 7.44167 9.68321 8.26416L12.954 11.535C13.1911 11.7721 13.1911 12.1565 12.954 12.3936C12.7169 12.6307 12.3325 12.6307 12.0954 12.3936L8.82458 9.12279C8.0021 9.76215 6.96859 10.1429 5.84616 10.1429ZM9.48901 5.28573C9.48901 7.29763 7.85805 8.92859 5.84616 8.92859C3.83426 8.92859 2.2033 7.29763 2.2033 5.28573C2.2033 3.27384 3.83426 1.64287 5.84616 1.64287C7.85805 1.64287 9.48901 3.27384 9.48901 5.28573Z"/>
</svg>
