<?xml version="1.0" encoding="UTF-8"?>
<svg width="17px" height="17px" viewBox="0 0 17 17" version="1.1" xmlns="http://www.w3.org/2000/svg" xmlns:xlink="http://www.w3.org/1999/xlink">
    <!-- Generator: Sketch 61.2 (89653) - https://sketch.com -->
    <desc>Created with Sketch.</desc>
    <g id="UI" stroke="none" stroke-width="1" fill="none" fill-rule="evenodd" opacity="0.506798735">
        <g id="191219-WebUI-Skeleton-SSS" transform="translate(-845.000000, -132.000000)">
            <g id="search-notifications" transform="translate(800.000000, 124.000000)">
                <g id="search" transform="translate(27.000000, 0.000000)">
                    <g id="Icons-/-Search" transform="translate(18.000000, 8.000000)">
                        <mask id="mask-search" fill="white">
                            <path d="M6.81999993,0.0999996662 C10.5313536,0.0999996662 13.5400002,3.10864627 13.5400002,6.81999993 C13.5400002,8.37297771 13.0132109,9.80291724 12.1285777,10.940873 L16.65397,15.4660306 C16.9820104,15.794071 16.9820104,16.3259296 16.65397,16.65397 C16.3259296,16.9820104 15.794071,16.9820104 15.4660306,16.65397 L15.4660306,16.65397 L10.940873,12.1285777 C9.80291724,13.0132109 8.37297771,13.5400002 6.81999993,13.5400002 C3.10864627,13.5400002 0.0999996662,10.5313536 0.0999996662,6.81999993 C0.0999996662,3.10864627 3.10864627,0.0999996662 6.81999993,0.0999996662 Z M6.81999993,1.77999973 C4.03648468,1.77999973 1.77999973,4.03648468 1.77999973,6.81999993 C1.77999973,9.60351518 4.03648468,11.8600001 6.81999993,11.8600001 C9.60351518,11.8600001 11.8600001,9.60351518 11.8600001,6.81999993 C11.8600001,4.03648468 9.60351518,1.77999973 6.81999993,1.77999973 Z"></path>
                        </mask>
                        <g id="Colors-/-Black" mask="url(#mask-search)" fill="#000000" fill-rule="evenodd">
                            <rect id="Color" x="0" y="0" width="17" height="17"></rect>
                        </g>
                    </g>
                </g>
            </g>
        </g>
    </g>
</svg>