<svg width="18" height="17" viewBox="0 0 18 17" fill="none" xmlns="http://www.w3.org/2000/svg">
<path fill-rule="evenodd" clip-rule="evenodd" d="M7.84616 12.1428C5.16363 12.1428 2.98901 9.96814 2.98901 7.28561C2.98901 4.60308 5.16363 2.42847 7.84616 2.42847C10.5287 2.42847 12.7033 4.60308 12.7033 7.28561C12.7033 8.40804 12.3226 9.44155 11.6832 10.264L14.954 13.5349C15.1911 13.772 15.1911 14.1564 14.954 14.3935C14.7169 14.6306 14.3325 14.6306 14.0954 14.3935L10.8246 11.1227C10.0021 11.762 8.96859 12.1428 7.84616 12.1428ZM11.489 7.28561C11.489 9.2975 9.85805 10.9285 7.84616 10.9285C5.83426 10.9285 4.2033 9.2975 4.2033 7.28561C4.2033 5.27372 5.83426 3.64275 7.84616 3.64275C9.85805 3.64275 11.489 5.27372 11.489 7.28561Z"/>
<mask id="mask0-search" mask-type="alpha" maskUnits="userSpaceOnUse" x="2" y="2" width="14" height="13">
<path fill-rule="evenodd" clip-rule="evenodd" d="M7.84616 12.1428C5.16363 12.1428 2.98901 9.96814 2.98901 7.28561C2.98901 4.60308 5.16363 2.42847 7.84616 2.42847C10.5287 2.42847 12.7033 4.60308 12.7033 7.28561C12.7033 8.40804 12.3226 9.44155 11.6832 10.264L14.954 13.5349C15.1911 13.772 15.1911 14.1564 14.954 14.3935C14.7169 14.6306 14.3325 14.6306 14.0954 14.3935L10.8246 11.1227C10.0021 11.762 8.96859 12.1428 7.84616 12.1428ZM11.489 7.28561C11.489 9.2975 9.85805 10.9285 7.84616 10.9285C5.83426 10.9285 4.2033 9.2975 4.2033 7.28561C4.2033 5.27372 5.83426 3.64275 7.84616 3.64275C9.85805 3.64275 11.489 5.27372 11.489 7.28561Z" fill="white"/>
</mask>
<g mask="url(#mask0-search)">
<rect x="0.560547" width="17" height="17" fill="black"/>
</g>
</svg>
