<?xml version="1.0" encoding="UTF-8"?>
<svg width="47px" height="44px" viewBox="0 0 47 44" version="1.1" xmlns="http://www.w3.org/2000/svg" xmlns:xlink="http://www.w3.org/1999/xlink">
    <!-- Generator: sketchtool 61.2 (101010) - https://sketch.com -->
    <desc>Created with sketchtool.</desc>
    <g id="Skeleton" stroke="none" stroke-width="1" fill-rule="evenodd">
        <g id="WebUI-Skeleton-Dashboard" transform="translate(-504.000000, -1145.000000)">
            <g id="history" transform="translate(504.000000, 1109.000000)">
                <g id="li-sent-item" transform="translate(0.000000, 36.000000)">
                    <g id="icon-sent-item" transform="translate(0.043602, 0.000000)">
                        <path d="M29.1490037,16.5834454 L29.1490037,23.939209 C29.0000912,24.4710393 28.4482401,24.7814556 27.9164098,24.6325431 C27.4225673,24.4942672 27.119638,24.0085595 27.1981097,23.5140651 L27.2230757,23.3999491 L27.2230757,18.6497803 L17.6581576,27.7722923 C17.2676333,28.1628166 16.6344684,28.1628166 16.2439441,27.7722923 C15.8834601,27.4118084 15.8557306,26.8445773 16.1607555,26.4522861 L16.2439441,26.3580788 L25.6495133,17.2758789 L21.1974175,17.2758789 C20.703575,17.4141548 20.1924698,17.1563768 20.0027467,16.6930328 L19.9648235,16.5825448 C19.8265477,16.0887024 20.0843256,15.5775971 20.5476697,15.387874 L20.6581576,15.3499509 L27.9164098,15.3508514 C28.631568,15.1506071 29.293228,15.7686765 29.1729941,16.4766639 L29.1490037,16.5834454 Z" id="Line-2" fill-rule="nonzero"></path>
                    </g>
                </g>
            </g>
        </g>
    </g>
</svg>