<svg width="18" height="18" viewbox="0 0 18 18" xmlns="http://www.w3.org/2000/svg">
    <!-- Generator: sketchtool 61.2 (101010) - https://sketch.com -->
    <desc>Created with sketchtool.</desc>
    <g fill-rule="evenodd" id="Skeleton">
        <g id="WebUI-Skeleton-Dashboard">
            <g id="history">
                <g id="li-sent-item">
                    <g id="icon-sent-item">
                        <path fill-rule="nonzero" id="Line-2" d="m15.579882,3.894569l0,7.355713c-0.148926,0.53186 -0.700775,0.842285 -1.232605,0.693359c-0.493835,-0.138306 -0.796783,-0.624023 -0.718292,-1.11853l0.024963,-0.114136l0,-4.750122l-9.564941,9.122559c-0.390503,0.390503 -1.023682,0.390503 -1.414185,0c-0.360504,-0.360474 -0.388214,-0.927734 -0.083191,-1.320068l0.083191,-0.094238l9.405548,-9.082153l-4.452087,0c-0.493835,0.138306 -1.004944,-0.119507 -1.194672,-0.582886l-0.037933,-0.110474c-0.138275,-0.493774 0.119507,-1.004883 0.582855,-1.194702l0.110474,-0.037842l7.25827,0.000854c0.715149,-0.200195 1.376801,0.417847 1.256592,1.125854l-0.023987,0.106812z"/>
                    </g>
                </g>
            </g>
        </g>
    </g>
</svg>