<?xml version="1.0" encoding="UTF-8"?>
<svg width="12px" height="22px" viewBox="0 0 12 22" version="1.1" xmlns="http://www.w3.org/2000/svg" xmlns:xlink="http://www.w3.org/1999/xlink">
    <!-- Generator: Sketch 61.2 (89653) - https://sketch.com -->
    <desc>Created with Sketch.</desc>
    <g id="UI" stroke="none" stroke-width="1" fill-rule="evenodd">
        <g id="191219-WebUI-Skeleton-SSS" transform="translate(-925.000000, -453.000000)">
            <g id="button-connection-manager" transform="translate(901.000000, 438.000000)">
                <path d="M28.8506932,28.2931311 L25.2590317,36.3550947 C25.1559141,36.5865561 25.2604058,36.8575867 25.4924206,36.9604584 C25.6662461,37.0375299 25.8696987,37 26.0042047,36.8656582 L35.6633758,27.2295253 C36.1122081,26.7817636 36.1122081,26.0557985 35.6633758,25.6080368 C35.5533168,25.4982403 35.4220496,25.4118896 35.277535,25.3542217 L31.1493068,23.7068689 L34.7409683,15.6449053 C34.8440859,15.4134439 34.7395942,15.1424133 34.5075794,15.0395416 C34.3337539,14.9624701 34.1303013,15 33.9957953,15.1343418 L24.3366242,24.7704747 C23.8877919,25.2182364 23.8877919,25.9442015 24.3366242,26.3919632 C24.4466832,26.5017597 24.5779504,26.5881104 24.722465,26.6457783 L28.8506932,28.2931311 Z"></path>
            </g>
        </g>
    </g>
</svg>