<svg width="13" height="22" viewBox="0 0 13 22" xmlns="http://www.w3.org/2000/svg">
<path fill-rule="evenodd" clip-rule="evenodd" d="M5.11607 13.2931L1.52441 21.3551C1.42129 21.5866 1.52579 21.8576 1.7578 21.9605C1.93163 22.0375 2.13508 21.9998 2.26959 21.8657L11.9288 12.2295C12.3776 11.7818 12.3776 11.0558 11.9288 10.608C11.8187 10.4982 11.6874 10.4119 11.5429 10.3542L7.41469 8.70687L11.0063 0.644905C11.1095 0.413444 11.005 0.142413 10.773 0.0395416C10.5991 -0.0375299 10.3957 0.000156611 10.2612 0.134342L0.602005 9.77047C0.153173 10.2182 0.153173 10.9442 0.602005 11.392C0.712064 11.5018 0.843331 11.5881 0.987846 11.6458L5.11607 13.2931Z"/>
</svg>
