<svg width="29" height="40" viewBox="0 0 29 40" fill="none" xmlns="http://www.w3.org/2000/svg">
<path d="M4.77121e-05 0.401405C0.0142294 0.407841 0.267981 0.506357 0.563012 0.620222C6.4497 2.90099 11.0762 5.82907 14.2803 9.30641C17.2683 12.5471 19.0102 16.3178 19.2236 20.006C19.2482 20.4476 19.2378 21.1155 19.1991 21.4393L19.19 21.5251H23.6765H28.163L28.1721 21.3949C28.1875 21.1964 28.1837 20.0137 28.167 19.6657C28.1062 18.3857 27.9702 17.2916 27.7256 16.0987C27.2171 13.6145 26.2826 11.1733 24.9343 8.80268C23.5524 6.37166 21.7095 4.01242 19.6286 2.00765C18.9983 1.39921 18.4315 0.899689 17.8931 0.473436L17.7857 0.388781L8.87984 0.390018C3.72199 0.390266 -0.0154003 0.395216 4.77121e-05 0.401405Z" fill="white"/>
<path d="M6.16479 26.8034C6.16479 33.5884 6.16739 39.1389 6.16998 39.1389C6.17388 39.1389 8.75045 37.6865 11.8958 35.9121C15.7056 33.7627 17.615 32.6788 17.6137 32.6659C17.6124 32.648 6.2058 14.5119 6.17517 14.4798C6.16998 14.473 6.16479 20.0185 6.16479 26.8034Z" fill="white"/>
</svg>
