<?xml version="1.0" encoding="UTF-8"?>
<svg width="32px" height="44px" viewBox="0 0 32 44" version="1.1" xmlns="http://www.w3.org/2000/svg" xmlns:xlink="http://www.w3.org/1999/xlink">
    <!-- Generator: Sketch 61.2 (89653) - https://sketch.com -->
    <title>raiden-logo</title>
    <desc>Created with Sketch.</desc>
    <g id="UI" stroke="none" stroke-width="1" fill="none" fill-rule="evenodd" opacity="0.201985677">
        <g id="191219-WebUI-Skeleton-SSS" transform="translate(-100.000000, -104.000000)" fill="#FFFFFF" fill-rule="nonzero">
            <g id="raiden-logo" transform="translate(116.000000, 126.000000) scale(-1, 1) rotate(-180.000000) translate(-116.000000, -126.000000) translate(100.000000, 104.000000)">
                <path d="M0,43.9856654 C0.0161573069,43.9783576 0.304288321,43.8664918 0.639290947,43.7371996 C7.3235279,41.1474212 12.5768867,37.8226449 16.215044,33.8741744 C19.607916,30.1944067 21.5857255,25.9128683 21.8281352,21.7249262 C21.8560281,21.2234974 21.8442383,20.4651707 21.8002422,20.0975313 L21.7898902,20 L26.8842306,20 L31.978571,20 L31.988923,20.1478428 C32.0064639,20.3732609 32.0021506,21.7162131 31.9831719,22.1113974 C31.9141584,23.56481 31.7597409,24.8071392 31.4819619,26.1616152 C30.9045497,28.9824331 29.8434684,31.7543449 28.3125208,34.4461517 C26.7433282,37.2065396 24.6507839,39.8854172 22.2879371,42.1618026 C21.5722104,42.8526725 20.9286603,43.4198716 20.3173165,43.9038741 L20.1953928,44 L10.0829143,43.9985947 C4.22626327,43.9983136 -0.0174867337,43.9926922 0,43.9856654 Z" id="Path"></path>
                <path d="M7,14.0067259 C7,6.30249689 7.00294658,0 7.00589315,0 C7.01031302,0 9.93596846,1.64914715 13.5075134,3.663976 C17.8333818,6.10462214 20.0014725,7.33539735 20,7.35000171 C19.998526,7.37033327 7.0465559,27.9636252 7.0117863,28 C7.00589315,28.0077246 7,21.7109549 7,14.0067259 Z" id="Path"></path>
            </g>
        </g>
    </g>
</svg>